<?xml version="1.0" standalone="no"?>
<!DOCTYPE svg PUBLIC "-//W3C//DTD SVG 20010904//EN"
 "http://www.w3.org/TR/2001/REC-SVG-20010904/DTD/svg10.dtd">
<svg version="1.0" xmlns="http://www.w3.org/2000/svg"
 width="260.000000pt" height="260.000000pt" viewBox="0 0 260.000000 260.000000"
 preserveAspectRatio="xMidYMid meet">
<metadata>
Created by potrace 1.14, written by Peter Selinger 2001-2017
</metadata>
<g transform="translate(0.000000,260.000000) scale(0.100000,-0.100000)"
fill="#000000" stroke="none">
<path d="M1008 2282 c-240 -239 -248 -249 -248 -287 0 -37 8 -47 165 -204
l165 -166 0 80 c1 149 45 285 138 422 57 85 64 88 94 55 66 -72 136 -203 163
-307 8 -33 15 -101 15 -154 l0 -96 165 165 c159 159 165 166 165 205 0 40 -6
46 -248 288 -240 239 -249 247 -287 247 -38 0 -48 -8 -287 -248z"/>
<path d="M845 1436 c-55 -18 -117 -50 -137 -73 -17 -19 -17 -20 5 -40 65 -61
185 -94 274 -75 59 12 140 48 182 80 l23 19 -48 31 c-101 63 -213 85 -299 58z"/>
<path d="M1588 1440 c-47 -12 -150 -63 -166 -83 -16 -19 5 -37 87 -76 122 -57
232 -51 343 21 l62 40 -29 24 c-81 66 -206 97 -297 74z"/>
<path d="M923 897 c-155 -155 -163 -165 -163 -202 0 -38 9 -48 248 -287 240
-240 249 -248 287 -248 38 0 47 8 287 248 241 241 248 249 248 287 0 39 -7 47
-165 205 l-165 165 0 -96 c0 -114 -17 -188 -70 -294 -37 -77 -117 -194 -132
-195 -4 0 -25 24 -47 53 -106 141 -151 259 -160 420 l-6 108 -162 -164z"/>
</g>
</svg>
